<svg xmlns="http://www.w3.org/2000/svg" xmlns:xlink="http://www.w3.org/1999/xlink" width="119.185" height="119.185" viewBox="0 0 119.185 119.185"><defs><style>.a{fill:#f3e4b2;}.b{clip-path:url(#a);}.c{fill:#ecc19c;}.d{fill:#eb6d4a;}.e{fill:#543e36;}.f{fill:#c34628;}</style><clipPath id="a"><circle cx="59.593" cy="59.593" r="59.593"/></clipPath></defs><circle class="a" cx="59.593" cy="59.593" r="59.593" transform="translate(0 0)"/><g class="b" transform="translate(0 0)"><path class="c" d="M105.287,37.443V57.249c0,.286-.006.573-.013.859-.006.234-.013.462-.026.7q-.009.313-.039.625c-.006.149-.02.3-.032.449-.007.092-.013.175-.027.267-.013.163-.026.332-.052.495-.026.312-.065.619-.111.931-.006.079-.02.156-.032.234-.02.156-.046.313-.072.469v.02c-.039.227-.078.449-.117.677-.059.312-.117.625-.182.931-.006.013-.006.027-.013.04a1.059,1.059,0,0,1-.026.137c-.006.013-.006.026-.013.039-.032.17-.072.332-.111.495a1.267,1.267,0,0,1-.052.215c-.02.117-.053.234-.078.352-.02.065-.032.137-.059.2s-.032.118-.046.17c-.137.534-.293,1.055-.456,1.576-.079.248-.156.488-.241.736-.006.026-.02.052-.026.078l-.234.665c-.026.065-.052.13-.078.2-.079.208-.156.417-.241.625-.1.253-.2.5-.306.749-.091.222-.189.442-.286.664-.013.04-.032.072-.046.111-.111.234-.215.469-.326.7s-.228.482-.352.723c-.234.475-.488.951-.742,1.413l-.352.625a38.333,38.333,0,0,1-3.328,4.845q-.244.322-.508.625c-.241.293-.488.58-.736.86-.222.248-.443.495-.671.736q-.938,1.006-1.915,1.909c-.13.13-.267.248-.4.371-.222.2-.443.4-.671.586-.175.156-.358.306-.541.456-.469.384-.938.755-1.413,1.1-.2.15-.4.293-.6.43-.326.234-.658.456-.99.671-.182.124-.371.241-.56.352-.665.41-1.335.788-2,1.114-.163.085-.326.163-.488.241s-.332.156-.508.234q-.322.146-.645.274a2.088,2.088,0,0,1-.254.1c-.254.1-.514.2-.768.286-.319.118-.645.215-.964.306-.222.065-.449.124-.671.175a.09.09,0,0,1-.046.013c-.222.053-.443.1-.665.144a1.708,1.708,0,0,1-.175.033c-.182.032-.365.065-.547.085a7.793,7.793,0,0,1-.782.084,1.8,1.8,0,0,1-.267.02c-.208.013-.417.02-.619.02h-.02c-.2,0-.4-.007-.606-.02a1.393,1.393,0,0,1-.234-.02c-.182-.006-.371-.026-.567-.052a.751.751,0,0,1-.124-.013c-.241-.032-.482-.072-.729-.117-.208-.033-.417-.079-.632-.13a18.767,18.767,0,0,1-3.419-1.152A25.019,25.019,0,0,1,69.447,87.4c-.5-.306-1-.632-1.5-.977-.248-.176-.495-.352-.742-.535q-1.163-.85-2.3-1.85c-.208-.189-.417-.378-.625-.573s-.417-.385-.619-.573q-.762-.733-1.485-1.523-.283-.3-.567-.625c-.521-.586-1.029-1.192-1.511-1.824-.189-.227-.365-.462-.54-.7q-.987-1.309-1.869-2.73c-.156-.253-.313-.514-.462-.768-.182-.306-.358-.619-.534-.931a35.509,35.509,0,0,1-1.771-3.648c-.079-.182-.156-.365-.222-.547-.1-.234-.2-.476-.28-.71q-.2-.518-.371-1.036c-.117-.345-.228-.7-.339-1.048s-.2-.677-.293-1.022c-.1-.365-.2-.736-.287-1.114-.006-.039-.02-.079-.026-.118q-.185-.781-.332-1.582c-.13-.7-.234-1.42-.312-2.143-.033-.227-.053-.456-.072-.684s-.046-.476-.059-.716c-.032-.436-.052-.88-.065-1.323-.006-.286-.013-.573-.013-.859V37.443A26.516,26.516,0,0,1,78.747,10.929h.027a26.809,26.809,0,0,1,5.874.651A26.524,26.524,0,0,1,105.28,37.208C105.287,37.286,105.287,37.364,105.287,37.443Z" transform="translate(-19.152 -4.006)"/></g><g class="b" transform="translate(0 0)"><path class="c" d="M108.67,172.062v.006h-69.1v-.006a34.37,34.37,0,0,1,1.843-11.157q.322-.947.7-1.876v-.007c.248-.619.521-1.224.807-1.823a34.148,34.148,0,0,1,4.207-6.708c.417-.515.84-1.017,1.276-1.5.215-.248.443-.488.671-.729s.456-.469.69-.7a34.308,34.308,0,0,1,3.732-3.217c.658-.488,1.322-.945,2.013-1.387s1.394-.854,2.11-1.244a.041.041,0,0,1,.026-.013c.28-.15.554-.313.827-.482a20.622,20.622,0,0,0,2.338-1.628,21.78,21.78,0,0,0,8.245-17.1l5.034.026,5.178.027a21.762,21.762,0,0,0,8.187,17.05,17.682,17.682,0,0,0,1.446,1.069c.053.039.1.071.15.1.234.156.469.312.716.456.267.163.54.326.814.476a.323.323,0,0,1,.117.058c.573.319,1.14.651,1.693,1,.267.163.534.332.794.521.541.345,1.068.723,1.583,1.114a.006.006,0,0,0,.006.006h.006c.658.488,1.3,1.01,1.921,1.544s1.224,1.094,1.8,1.674A34.366,34.366,0,0,1,108.67,172.062Z" transform="translate(-14.506 -44.898)"/></g><g class="b" transform="translate(0 0)"><path class="d" d="M108.667,181.942H39.572a34.368,34.368,0,0,1,1.843-11.157q.322-.947.7-1.876V168.9c.248-.619.521-1.224.808-1.824a34.156,34.156,0,0,1,4.207-6.708c.417-.514.841-1.016,1.276-1.5.215-.248.443-.488.671-.729s.456-.469.69-.7a34.3,34.3,0,0,1,3.732-3.217c.658-.488,1.322-.945,2.013-1.387.358-.227.716-.449,1.081-.664.339-.2.684-.4,1.029-.587a.022.022,0,0,1,.026-.006v-.007c.28-.156.554-.312.827-.476a20.12,20.12,0,0,0,2.325-1.641l.013.013a18.566,18.566,0,0,0,13.28,5.608h.053a18.6,18.6,0,0,0,13.312-5.6l.006-.007a17.516,17.516,0,0,0,1.439,1.075c.052.039.1.071.149.1.234.156.476.306.716.456.267.163.541.319.814.469a.654.654,0,0,1,.117.059c.306.17.619.345.919.527.261.156.521.313.775.476s.534.332.794.521c.541.345,1.068.723,1.582,1.114h.013c.658.495,1.3,1.01,1.921,1.549s1.224,1.095,1.8,1.674A34.372,34.372,0,0,1,108.667,181.942Z" transform="translate(-14.504 -54.78)"/></g><g class="b" transform="translate(0 0)"><path class="e" d="M105.287,84.05c0,.286-.006.573-.013.859-.006.234-.013.462-.026.7q-.009.313-.039.625c-.006.15-.02.3-.032.449-.007.092-.013.175-.027.267-.013.163-.026.332-.052.495-.033.312-.065.625-.111.931-.006.079-.02.156-.032.234-.02.156-.046.313-.072.469-.032.234-.078.469-.117.7-.052.274-.1.54-.163.807a1.242,1.242,0,0,1-.033.163c-.006.045-.02.091-.026.137-.006.013-.006.026-.013.039a.341.341,0,0,1-.013.085c-.032.137-.059.274-.1.41a1.268,1.268,0,0,1-.052.215,3.879,3.879,0,0,1-.1.378.815.815,0,0,1-.039.175c-.013.059-.032.118-.046.17-.137.534-.293,1.055-.456,1.576-.079.248-.156.488-.241.736-.006.026-.02.052-.026.078l-.234.665c-.026.065-.052.13-.078.2-.079.208-.156.417-.241.625-.1.253-.2.5-.306.749-.091.222-.189.442-.286.664-.013.04-.032.072-.046.111-.111.234-.215.469-.326.7s-.228.482-.352.723c-.234.475-.488.951-.742,1.413l-.352.625a38.333,38.333,0,0,1-3.328,4.845q-.244.322-.508.625c-.241.293-.488.58-.736.86-.222.248-.443.495-.671.736q-.938,1.006-1.915,1.909c-.131.13-.267.248-.4.371-.222.2-.443.4-.671.586-.175.156-.358.306-.541.456-.469.384-.938.755-1.413,1.1-.2.15-.4.293-.6.43-.326.234-.658.456-.99.671-.182.124-.371.241-.56.352-.665.41-1.335.788-2,1.114-.163.085-.326.163-.488.241s-.332.156-.508.234q-.322.146-.645.274a2.088,2.088,0,0,1-.254.1c-.254.1-.514.2-.768.286-.319.118-.645.215-.964.306-.222.065-.449.124-.671.175a.09.09,0,0,1-.046.013c-.222.053-.443.1-.665.144a1.708,1.708,0,0,1-.175.033c-.182.032-.365.065-.547.085a7.793,7.793,0,0,1-.782.084,1.8,1.8,0,0,1-.267.02c-.208.013-.417.02-.619.02h-.02c-.2,0-.4-.007-.606-.02a1.393,1.393,0,0,1-.234-.02c-.182-.006-.371-.026-.567-.052a.751.751,0,0,1-.124-.013c-.241-.032-.482-.072-.729-.117-.208-.033-.417-.079-.632-.13a18.768,18.768,0,0,1-3.419-1.152,25.019,25.019,0,0,1-2.989-1.576c-.5-.3-1-.625-1.5-.977-.248-.176-.495-.352-.742-.535q-1.163-.85-2.3-1.85c-.208-.189-.417-.378-.625-.573s-.417-.385-.619-.573q-.762-.733-1.485-1.523-.283-.3-.567-.625c-.521-.586-1.029-1.192-1.511-1.824-.189-.227-.365-.462-.54-.7q-.987-1.309-1.869-2.73c-.156-.253-.313-.514-.462-.768-.182-.306-.358-.619-.534-.931a35.511,35.511,0,0,1-1.771-3.648c-.079-.182-.156-.365-.222-.547-.1-.234-.2-.476-.28-.71q-.2-.518-.371-1.036c-.117-.345-.228-.7-.339-1.048s-.2-.677-.293-1.022c-.1-.365-.2-.736-.287-1.114-.006-.039-.02-.079-.026-.118q-.185-.781-.332-1.582c-.13-.7-.234-1.42-.312-2.143-.033-.227-.053-.456-.072-.684s-.046-.476-.059-.716c-.032-.436-.052-.88-.065-1.323-.006-.286-.013-.573-.013-.859l4.233,8.324,7.275,3.172,8.6.774h.006l6.376.58h.039l5.965.54s0-.006.006,0l13.306,1.2Z" transform="translate(-19.152 -30.807)"/></g><g class="b" transform="translate(0 0)"><path class="e" d="M78.8,83.728l-.006,6.415v.006L78.786,92.4v1.765l-.006,5.861v.007l-.006-.007h-.006l-.02-.013L53.131,86.972c-.006-.039-.02-.079-.026-.118q-.185-.781-.332-1.582c-.13-.7-.234-1.42-.312-2.143-.033-.227-.053-.456-.072-.684s-.046-.476-.059-.716c-.032-.436-.052-.88-.065-1.323-.006-.286-.013-.573-.013-.859V71.764c0,.111.006.222.006.332a25.922,25.922,0,0,0,.931,6.07A26.291,26.291,0,0,0,54.85,82.64v.006c1.707,3.55,3.993,5.959,6.1,6.35.13.02.267.033.4.046a22.9,22.9,0,0,0,2.547.143c3.322,0,6.272-2.67,8.128-3.751l.039-.019c.1-.059.2-.118.28-.176a.47.47,0,0,1,.079-.045,13.163,13.163,0,0,1,6.33-1.465Z" transform="translate(-19.152 -26.304)"/><path class="e" d="M120.621,71.759l-.006,7.783a31.921,31.921,0,0,1-.521,5.725c-.137.742-.293,1.479-.476,2.208l-6.012,8.682-19.5,3.862H94.1l-.006.007v-.007l-.02-16.3h.053a13.211,13.211,0,0,1,6.337,1.465.424.424,0,0,1,.072.046c.091.058.189.117.287.175a.144.144,0,0,0,.032.02c1.862,1.081,4.806,3.753,8.128,3.753a22.9,22.9,0,0,0,2.547-.143c.137-.013.267-.026.4-.046,2.1-.391,4.39-2.8,6.09-6.35v-.006a26.345,26.345,0,0,0,1.661-4.474,25.635,25.635,0,0,0,.931-6.155C120.621,71.922,120.621,71.843,120.621,71.759Z" transform="translate(-34.481 -26.302)"/></g><g class="b"><ellipse class="c" cx="6.496" cy="2.009" rx="6.496" ry="2.009" transform="translate(53.118 63.84)"/></g><g class="b" transform="translate(0 0)"><path class="e" d="M78.771,10.929h-.025A26.517,26.517,0,0,0,52.252,37.443V49.134s1.1-6.976,4.064-10.362c3.217-3.68,2.4-9.275,9.62-9.275,4.657,0,4.917,1.719,12.8,1.719h.038c7.887,0,8.148-1.719,12.8-1.719,7.216,0,6.4,5.594,9.62,9.275,2.963,3.387,4.064,10.362,4.064,10.362V37.443A26.517,26.517,0,0,0,78.771,10.929Z" transform="translate(-19.152 -4.006)"/></g><g class="b" transform="translate(0 0)"><path class="f" d="M101.473,152.157l-.716.73a23.535,23.535,0,0,1-33.626-.013l-.684-.7c.339-.2.684-.4,1.029-.587a.022.022,0,0,1,.026-.006v-.007c.28-.156.554-.312.827-.476a20.119,20.119,0,0,0,2.325-1.641l.013.013a18.566,18.566,0,0,0,13.28,5.608H84a18.6,18.6,0,0,0,13.312-5.6l.006-.007a17.514,17.514,0,0,0,1.439,1.075c.052.039.1.071.15.1.234.156.476.306.716.456.267.163.541.319.814.469a.654.654,0,0,1,.117.059C100.861,151.8,101.173,151.975,101.473,152.157Z" transform="translate(-24.355 -54.78)"/></g></svg>